<svg width="160" height="23" viewBox="0 0 160 23" fill="none" xmlns="http://www.w3.org/2000/svg">
<path d="M10.9858 5.56534C10.9176 4.87784 10.625 4.34375 10.108 3.96307C9.59091 3.58239 8.8892 3.39204 8.00284 3.39204C7.40057 3.39204 6.89205 3.47727 6.47727 3.64773C6.0625 3.8125 5.74432 4.04261 5.52273 4.33807C5.30682 4.63352 5.19886 4.96875 5.19886 5.34375C5.1875 5.65625 5.25284 5.92898 5.39489 6.16193C5.54261 6.39489 5.74432 6.59659 6 6.76705C6.25568 6.93182 6.55114 7.0767 6.88636 7.2017C7.22159 7.32102 7.57955 7.4233 7.96023 7.50852L9.52841 7.88352C10.2898 8.05398 10.9886 8.28125 11.625 8.56534C12.2614 8.84943 12.8125 9.19886 13.2784 9.61364C13.7443 10.0284 14.1051 10.517 14.3608 11.0795C14.6222 11.642 14.7557 12.2869 14.7614 13.0142C14.7557 14.0824 14.483 15.0085 13.9432 15.7926C13.4091 16.571 12.6364 17.1761 11.625 17.608C10.6193 18.0341 9.40625 18.2472 7.9858 18.2472C6.5767 18.2472 5.34943 18.0312 4.30398 17.5994C3.2642 17.1676 2.4517 16.5284 1.86648 15.6818C1.28693 14.8295 0.982955 13.7756 0.954545 12.5199H4.52557C4.56534 13.1051 4.73295 13.5937 5.02841 13.9858C5.32955 14.3722 5.73011 14.6648 6.23011 14.8636C6.7358 15.0568 7.30682 15.1534 7.94318 15.1534C8.56818 15.1534 9.1108 15.0625 9.57102 14.8807C10.0369 14.6989 10.3977 14.446 10.6534 14.1222C10.9091 13.7983 11.0369 13.4261 11.0369 13.0057C11.0369 12.6136 10.9205 12.2841 10.6875 12.017C10.4602 11.75 10.125 11.5227 9.68182 11.3352C9.24432 11.1477 8.70739 10.9773 8.07102 10.8239L6.17045 10.3466C4.69886 9.98864 3.53693 9.42898 2.68466 8.66761C1.83239 7.90625 1.40909 6.88068 1.41477 5.59091C1.40909 4.53409 1.69034 3.6108 2.25852 2.82102C2.83239 2.03125 3.61932 1.41477 4.61932 0.971591C5.61932 0.528409 6.75568 0.306818 8.02841 0.306818C9.32386 0.306818 10.4545 0.528409 11.4205 0.971591C12.392 1.41477 13.1477 2.03125 13.6875 2.82102C14.2273 3.6108 14.5057 4.52557 14.5227 5.56534H10.9858ZM20.9084 18.2472C20.0732 18.2472 19.3288 18.1023 18.6754 17.8125C18.022 17.517 17.505 17.0824 17.1243 16.5085C16.7493 15.929 16.5618 15.2074 16.5618 14.3438C16.5618 13.6165 16.6953 13.0057 16.9624 12.5114C17.2294 12.017 17.593 11.6193 18.0533 11.3182C18.5135 11.017 19.0362 10.7898 19.6214 10.6364C20.2124 10.483 20.8317 10.375 21.4794 10.3125C22.2408 10.233 22.8544 10.1591 23.3203 10.0909C23.7862 10.017 24.1243 9.90909 24.3345 9.76705C24.5447 9.625 24.6499 9.41477 24.6499 9.13636V9.08523C24.6499 8.54545 24.4794 8.12784 24.1385 7.83239C23.8033 7.53693 23.326 7.3892 22.7067 7.3892C22.0533 7.3892 21.5334 7.53409 21.147 7.82386C20.7607 8.10795 20.505 8.46591 20.38 8.89773L17.022 8.625C17.1925 7.82955 17.5277 7.14205 18.0277 6.5625C18.5277 5.97727 19.1726 5.52841 19.9624 5.21591C20.7578 4.89773 21.6783 4.73864 22.7237 4.73864C23.451 4.73864 24.147 4.82386 24.8118 4.99432C25.4822 5.16477 26.076 5.42898 26.593 5.78693C27.1158 6.14489 27.5277 6.60511 27.8288 7.16761C28.13 7.72443 28.2805 8.39205 28.2805 9.17045V18H24.8374V16.1847H24.7351C24.5249 16.5938 24.2436 16.9545 23.8913 17.267C23.5391 17.5739 23.1158 17.8153 22.6214 17.9915C22.1271 18.1619 21.5561 18.2472 20.9084 18.2472ZM21.9482 15.7415C22.4822 15.7415 22.9538 15.6364 23.3629 15.4261C23.772 15.2102 24.093 14.9205 24.326 14.5568C24.5589 14.1932 24.6754 13.7812 24.6754 13.321V11.9318C24.5618 12.0057 24.4055 12.0739 24.2067 12.1364C24.0135 12.1932 23.7947 12.2472 23.5504 12.2983C23.3061 12.3437 23.0618 12.3864 22.8175 12.4261C22.5732 12.4602 22.3516 12.4915 22.1527 12.5199C21.7266 12.5824 21.3544 12.6818 21.0362 12.8182C20.718 12.9545 20.4709 13.1392 20.2947 13.3722C20.1186 13.5994 20.0305 13.8835 20.0305 14.2244C20.0305 14.7188 20.2095 15.0966 20.5675 15.358C20.9311 15.6136 21.3913 15.7415 21.9482 15.7415ZM34.1314 4.90909L36.5348 9.4858L38.9979 4.90909H42.7223L38.9297 11.4545L42.8246 18H39.1172L36.5348 13.4744L33.995 18H30.245L34.1314 11.4545L30.3814 4.90909H34.1314ZM50.3011 18.2557C48.9773 18.2557 47.8324 17.9744 46.8665 17.4119C45.9063 16.8437 45.1648 16.054 44.642 15.0426C44.1193 14.0256 43.858 12.8466 43.858 11.5057C43.858 10.1534 44.1193 8.97159 44.642 7.96023C45.1648 6.94318 45.9063 6.15341 46.8665 5.59091C47.8324 5.02273 48.9773 4.73864 50.3011 4.73864C51.625 4.73864 52.767 5.02273 53.7273 5.59091C54.6932 6.15341 55.4375 6.94318 55.9602 7.96023C56.483 8.97159 56.7443 10.1534 56.7443 11.5057C56.7443 12.8466 56.483 14.0256 55.9602 15.0426C55.4375 16.054 54.6932 16.8437 53.7273 17.4119C52.767 17.9744 51.625 18.2557 50.3011 18.2557ZM50.3182 15.4432C50.9205 15.4432 51.4233 15.2727 51.8267 14.9318C52.2301 14.5852 52.5341 14.1136 52.7386 13.517C52.9489 12.9205 53.054 12.2415 53.054 11.4801C53.054 10.7188 52.9489 10.0398 52.7386 9.44318C52.5341 8.84659 52.2301 8.375 51.8267 8.02841C51.4233 7.68182 50.9205 7.50852 50.3182 7.50852C49.7102 7.50852 49.1989 7.68182 48.7841 8.02841C48.375 8.375 48.0653 8.84659 47.8551 9.44318C47.6506 10.0398 47.5483 10.7188 47.5483 11.4801C47.5483 12.2415 47.6506 12.9205 47.8551 13.517C48.0653 14.1136 48.375 14.5852 48.7841 14.9318C49.1989 15.2727 49.7102 15.4432 50.3182 15.4432Z" fill="#3E4B60"/>
<path d="M75.2131 9.27273C75.2131 11.1761 74.8523 12.7955 74.1307 14.1307C73.4148 15.4659 72.4375 16.4858 71.1989 17.1903C69.9659 17.8892 68.5795 18.2386 67.0398 18.2386C65.4886 18.2386 64.0966 17.8864 62.8636 17.1818C61.6307 16.4773 60.6563 15.4574 59.9403 14.1222C59.2244 12.7869 58.8665 11.1705 58.8665 9.27273C58.8665 7.36932 59.2244 5.75 59.9403 4.41477C60.6563 3.07955 61.6307 2.0625 62.8636 1.36364C64.0966 0.659091 65.4886 0.306818 67.0398 0.306818C68.5795 0.306818 69.9659 0.659091 71.1989 1.36364C72.4375 2.0625 73.4148 3.07955 74.1307 4.41477C74.8523 5.75 75.2131 7.36932 75.2131 9.27273ZM71.4716 9.27273C71.4716 8.03977 71.2869 7 70.9176 6.15341C70.554 5.30682 70.0398 4.66477 69.375 4.22727C68.7102 3.78977 67.9318 3.57102 67.0398 3.57102C66.1477 3.57102 65.3693 3.78977 64.7045 4.22727C64.0398 4.66477 63.5227 5.30682 63.1534 6.15341C62.7898 7 62.608 8.03977 62.608 9.27273C62.608 10.5057 62.7898 11.5455 63.1534 12.392C63.5227 13.2386 64.0398 13.8807 64.7045 14.3182C65.3693 14.7557 66.1477 14.9744 67.0398 14.9744C67.9318 14.9744 68.7102 14.7557 69.375 14.3182C70.0398 13.8807 70.554 13.2386 70.9176 12.392C71.2869 11.5455 71.4716 10.5057 71.4716 9.27273ZM77.8786 22.9091V4.90909H81.4581V7.10795H81.62C81.7791 6.75568 82.0092 6.39773 82.3104 6.03409C82.6172 5.66477 83.0149 5.35795 83.5036 5.11364C83.9979 4.86364 84.6115 4.73864 85.3445 4.73864C86.299 4.73864 87.1797 4.98864 87.9865 5.48864C88.7933 5.98295 89.4382 6.73011 89.9212 7.73011C90.4041 8.72443 90.6456 9.97159 90.6456 11.4716C90.6456 12.9318 90.4098 14.1648 89.9382 15.1705C89.4723 16.1705 88.8359 16.929 88.0291 17.446C87.228 17.9574 86.3303 18.2131 85.3359 18.2131C84.6314 18.2131 84.032 18.0966 83.5376 17.8636C83.049 17.6307 82.6484 17.3381 82.3359 16.9858C82.0234 16.6278 81.7848 16.267 81.62 15.9034H81.5092V22.9091H77.8786ZM81.4325 11.4545C81.4325 12.233 81.5405 12.9119 81.7564 13.4915C81.9723 14.071 82.2848 14.5227 82.6939 14.8466C83.103 15.1648 83.6001 15.3239 84.1854 15.3239C84.7763 15.3239 85.2763 15.1619 85.6854 14.8381C86.0945 14.5085 86.4041 14.054 86.6143 13.4744C86.8303 12.8892 86.9382 12.2159 86.9382 11.4545C86.9382 10.6989 86.8331 10.0341 86.6229 9.46023C86.4126 8.88636 86.103 8.4375 85.6939 8.11364C85.2848 7.78977 84.782 7.62784 84.1854 7.62784C83.5945 7.62784 83.0945 7.78409 82.6854 8.09659C82.282 8.40909 81.9723 8.85227 81.7564 9.42614C81.5405 10 81.4325 10.6761 81.4325 11.4545ZM99.032 18.2557C97.6854 18.2557 96.5263 17.983 95.5547 17.4375C94.5888 16.8864 93.8445 16.108 93.3217 15.1023C92.799 14.0909 92.5376 12.8949 92.5376 11.5142C92.5376 10.1676 92.799 8.9858 93.3217 7.96875C93.8445 6.9517 94.5803 6.15909 95.5291 5.59091C96.4837 5.02273 97.603 4.73864 98.8871 4.73864C99.7507 4.73864 100.555 4.87784 101.299 5.15625C102.049 5.42898 102.702 5.84091 103.259 6.39205C103.822 6.94318 104.259 7.63636 104.572 8.47159C104.884 9.30114 105.04 10.2727 105.04 11.3864V12.3835H93.9865V10.1335H101.623C101.623 9.6108 101.509 9.14773 101.282 8.74432C101.055 8.34091 100.739 8.02557 100.336 7.7983C99.9382 7.56534 99.4751 7.44886 98.9467 7.44886C98.3956 7.44886 97.907 7.5767 97.4808 7.83239C97.0604 8.08239 96.7308 8.42045 96.4922 8.84659C96.2536 9.26705 96.1314 9.7358 96.1257 10.2528V12.392C96.1257 13.0398 96.245 13.5994 96.4837 14.071C96.728 14.5426 97.0717 14.9062 97.5149 15.1619C97.9581 15.4176 98.4837 15.5455 99.0916 15.5455C99.495 15.5455 99.8643 15.4886 100.2 15.375C100.535 15.2614 100.822 15.0909 101.06 14.8636C101.299 14.6364 101.481 14.358 101.606 14.0284L104.964 14.25C104.793 15.0568 104.444 15.7614 103.915 16.3636C103.393 16.9602 102.717 17.4261 101.887 17.7614C101.063 18.0909 100.112 18.2557 99.032 18.2557ZM111.04 10.4318V18H107.41V4.90909H110.87V7.21875H111.023C111.313 6.45739 111.799 5.85511 112.481 5.41193C113.163 4.96307 113.989 4.73864 114.961 4.73864C115.87 4.73864 116.663 4.9375 117.339 5.33523C118.015 5.73295 118.54 6.30114 118.915 7.03977C119.29 7.77273 119.478 8.64773 119.478 9.66477V18H115.847V10.3125C115.853 9.51136 115.648 8.88636 115.234 8.4375C114.819 7.98295 114.248 7.75568 113.521 7.75568C113.032 7.75568 112.6 7.8608 112.225 8.07102C111.856 8.28125 111.566 8.58807 111.356 8.99148C111.151 9.3892 111.046 9.86932 111.04 10.4318ZM125.416 18H121.462L127.487 0.545454H132.243L138.26 18H134.305L129.933 4.53409H129.797L125.416 18ZM125.169 11.1392H134.51V14.0199H125.169V11.1392ZM140.361 18V0.545454H147.247C148.571 0.545454 149.699 0.798295 150.631 1.30398C151.563 1.80398 152.273 2.5 152.761 3.39204C153.256 4.27841 153.503 5.30114 153.503 6.46023C153.503 7.61932 153.253 8.64205 152.753 9.52841C152.253 10.4148 151.528 11.1051 150.58 11.5994C149.636 12.0937 148.494 12.3409 147.153 12.3409H142.764V9.38352H146.557C147.267 9.38352 147.852 9.26136 148.312 9.01705C148.778 8.76705 149.125 8.4233 149.352 7.9858C149.585 7.54261 149.702 7.03409 149.702 6.46023C149.702 5.88068 149.585 5.375 149.352 4.94318C149.125 4.50568 148.778 4.16761 148.312 3.92898C147.847 3.68466 147.256 3.5625 146.54 3.5625H144.051V18H140.361ZM159.59 0.545454V18H155.9V0.545454H159.59Z" fill="#1B73EE"/>
</svg>
